<?xml version="1.0" encoding="UTF-8"?>
<svg viewBox="0 0 500 238" xmlns="http://www.w3.org/2000/svg">
<path d="m35.766 151.95c7.4529 0 14.029-2.1898 19.436-6.7155 5.5531-4.5257 8.3297-9.7813 8.3297-15.913 0-19.855-23.089-22.19-32.442-26.862-7.1606-4.0877-2.4843-11.533 4.6763-11.533 4.8224 0 7.599 3.0658 8.3297 5.4016 0.73067 2.4818 2.4843 3.7957 5.2608 3.7957h9.3526c2.192 0 3.9456-1.7519 3.9456-3.9417 0-4.5257-2.3381-8.9053-7.0144-13.431-4.6763-4.5257-11.252-6.7155-19.582-6.7155-7.1606 0-13.444 2.0439-18.705 6.1316-5.1147 4.0877-7.7451 9.3433-7.7451 15.767 0 13.723 12.86 18.541 22.797 22.19 6.8683 2.4818 12.421 5.5476 12.421 9.7813 0 3.6497-2.7766 7.0075-8.7681 7.0075-4.9686 0-8.1835-1.7519-9.6449-5.4016-1.0229-2.4818-2.7766-3.7957-5.5531-3.7957h-8.9142c-2.192 0-3.9456 1.7519-3.9456 3.9417 0 4.3797 2.3381 8.9053 7.1606 13.431s11.691 6.8615 20.605 6.8615zm76.255 33.878l-1.7536-1.1679v25.84c0 2.1898-1.7536 3.9417-3.9456 3.9417h-10.376c-2.192 0-3.9456-1.7519-3.9456-3.9417v-91.389c0-2.1898 1.7536-3.9417 3.9456-3.9417h8.9142c2.192 0 3.9456 1.7519 3.9456 3.9417v1.1679c4.2379-4.2337 9.6449-6.2775 16.513-6.2775 7.1606 0 13.298 2.3358 18.413 7.1535 5.1147 4.6717 7.599 10.511 7.599 17.665v25.694c0 7.2995-2.4843 13.285-7.599 18.103-5.1147 4.6717-11.106 7.0075-18.121 7.0075-5.8454 0-11.398-2.0439-13.59-3.7957zm123.25-158.89v28.76c3.6534-3.3578 8.7681-4.9636 15.344-4.9636 7.0144 0 13.006 2.3358 18.121 7.1535 5.1147 4.6717 7.599 10.657 7.599 17.957v25.694c0 7.1535-2.4843 12.993-7.599 17.811-5.1147 4.6717-11.252 7.0075-18.413 7.0075-6.8683 0-12.275-2.0439-16.513-6.2775v1.1679c0 2.1898-1.7536 3.9417-3.9456 3.9417h-8.9142c-2.192 0-3.9456-1.7519-3.9456-3.9417v-94.309c0-2.1898 1.7536-3.9417 3.9456-3.9417h10.376c2.192 0 3.9456 1.7519 3.9456 3.9417zm155.26 52.876c1.0229 0.72995 1.4613 1.6059 1.4613 2.7738 0 0.72995-0.29227 1.4599-0.73067 2.1898l-4.9686 7.0075c-0.73067 0.87594-1.6075 1.3139-2.6304 1.3139-0.87681 0-1.6075-0.29198-2.3381-0.72995-7.7451-5.1096-18.413-1.0219-17.682 7.7374v5.5476h22.943c1.8997 0 3.6534 1.6059 3.6534 3.5037v8.1754c0 1.8979-1.7536 3.5037-3.6534 3.5037h-22.943v53.87c0 2.1898-1.7536 3.9417-3.9456 3.9417h-10.083c-2.192 0-3.9456-1.7519-3.9456-3.9417v-53.87h-13.006c-1.8997 0-3.6534-1.6059-3.6534-3.5037v-8.1754c0-1.8979 1.7536-3.5037 3.6534-3.5037h13.006v-5.1096c0-7.2995 2.6304-13.431 7.7451-18.249 5.1147-4.8176 11.691-7.2995 19.728-7.2995 7.0144 0 12.86 1.6059 17.39 4.8176zm82.266-35.39v13.195l11.493-3.9414c1.2007-0.17136 1.8869-0.34273 2.23-0.34273 1.2007 0 2.0584 1.0282 2.7446 2.9132l2.0584 5.8264c0 0.51409 0.68614 2.0564 0.68614 2.7418 0 1.3709-0.85768 2.3991-2.4015 2.9132l-12.351 4.4555 7.8906 10.282c0.34307 0.68546 0.5146 1.3709 0.5146 2.0564 0 1.1996-0.68614 2.2277-2.0584 3.0846l-5.6607 4.2841c-0.51461 0.68546-1.3723 1.0282-2.23 1.0282-1.2007 0-2.0584-0.51409-2.9161-1.5423l-7.7191-10.111-7.7191 10.282c-0.5146 0.85682-1.2007 1.3709-2.4015 1.3709-1.0292 0-1.8869-0.34273-2.7446-1.1996l-6.1753-4.2841c-1.0292-0.85682-1.5438-1.885-1.5438-2.9132 0-0.68546 0.17154-1.3709 0.5146-2.0564l7.5475-10.282-12.179-4.1128c-1.5438-0.51409-2.23-1.7136-2.23-3.2559 0-0.85682 0.17154-1.7136 0.5146-2.7418l1.8869-5.8264c0.68614-1.885 1.7154-2.9132 3.0876-2.9132 0.17154 0 0.85768 0.17136 2.23 0.34273l11.493 3.9414v-13.195c0-1.885 1.8869-3.4273 4.1168-3.4273h7.2045c2.23 0 4.1168 1.5423 4.1168 3.4273z" fill="#00dd3b" fill-rule="evenodd"/>
</svg>
