<svg viewBox="0 0 500 238"><path d="M35.766 151.95c7.453 0 14.029-2.19 19.436-6.715 5.553-4.526 8.33-9.782 8.33-15.914 0-19.855-23.09-22.19-32.442-26.862-7.16-4.087-2.485-11.533 4.676-11.533 4.822 0 7.599 3.066 8.33 5.402.73 2.482 2.484 3.796 5.26 3.796h9.353a3.927 3.927 0 0 0 3.946-3.942c0-4.526-2.338-8.905-7.015-13.43-4.676-4.527-11.252-6.716-19.582-6.716-7.16 0-13.444 2.043-18.705 6.131-5.114 4.088-7.745 9.343-7.745 15.767 0 13.723 12.86 18.541 22.797 22.19 6.868 2.482 12.421 5.548 12.421 9.781 0 3.65-2.776 7.008-8.768 7.008-4.969 0-8.183-1.752-9.645-5.402-1.023-2.481-2.776-3.795-5.553-3.795h-8.914A3.927 3.927 0 0 0 8 131.657c0 4.38 2.338 8.906 7.16 13.431s11.692 6.862 20.606 6.862zm76.255 33.878l-1.754-1.168v25.84a3.927 3.927 0 0 1-3.945 3.942H95.946A3.927 3.927 0 0 1 92 210.5v-91.389a3.927 3.927 0 0 1 3.946-3.942h8.914a3.927 3.927 0 0 1 3.946 3.942v1.168c4.237-4.234 9.644-6.278 16.513-6.278 7.16 0 13.298 2.336 18.413 7.154 5.114 4.672 7.599 10.511 7.599 17.665v25.694c0 7.3-2.485 13.285-7.6 18.103-5.114 4.672-11.105 7.007-18.12 7.007-5.846 0-11.398-2.043-13.59-3.795zm123.25-158.89v28.76c3.653-3.358 8.768-4.964 15.344-4.964 7.014 0 13.006 2.336 18.121 7.154 5.115 4.672 7.599 10.657 7.599 17.957v25.694c0 7.153-2.484 12.993-7.599 17.81-5.115 4.673-11.252 7.008-18.413 7.008-6.868 0-12.275-2.044-16.513-6.277v1.168a3.927 3.927 0 0 1-3.946 3.941h-8.914a3.927 3.927 0 0 1-3.945-3.941v-94.31a3.927 3.927 0 0 1 3.945-3.94h10.376a3.927 3.927 0 0 1 3.946 3.94zm155.26 52.876c1.023.73 1.461 1.606 1.461 2.774 0 .73-.292 1.46-.73 2.19l-4.969 7.007c-.73.876-1.607 1.314-2.63 1.314-.877 0-1.608-.292-2.338-.73-7.746-5.11-18.413-1.022-17.682 7.737v5.548h22.943c1.9 0 3.653 1.606 3.653 3.504v8.175c0 1.898-1.754 3.504-3.653 3.504h-22.943v53.87a3.927 3.927 0 0 1-3.946 3.942h-10.083a3.927 3.927 0 0 1-3.946-3.942v-53.87h-13.006c-1.9 0-3.653-1.606-3.653-3.504v-8.175c0-1.898 1.754-3.504 3.653-3.504h13.006v-5.11c0-7.3 2.63-13.43 7.745-18.249 5.115-4.817 11.691-7.3 19.728-7.3 7.015 0 12.86 1.607 17.39 4.819zm82.266-35.39v13.195l11.493-3.941c1.2-.172 1.887-.343 2.23-.343 1.2 0 2.058 1.028 2.745 2.913l2.058 5.826c0 .515.686 2.057.686 2.742 0 1.371-.858 2.4-2.401 2.913l-12.351 4.456 7.89 10.282c.343.685.515 1.37.515 2.056 0 1.2-.686 2.228-2.059 3.085l-5.66 4.284c-.515.686-1.373 1.028-2.23 1.028-1.201 0-2.059-.514-2.916-1.542l-7.72-10.111-7.719 10.282c-.514.857-1.2 1.37-2.401 1.37-1.03 0-1.887-.342-2.745-1.199l-6.175-4.284c-1.03-.857-1.544-1.885-1.544-2.913 0-.685.172-1.37.515-2.056l7.547-10.282-12.179-4.113c-1.543-.514-2.23-1.714-2.23-3.256 0-.857.172-1.714.515-2.742l1.887-5.826c.686-1.885 1.715-2.914 3.087-2.914.172 0 .858.172 2.23.343l11.493 3.942V44.424c0-1.885 1.887-3.428 4.117-3.428h7.205c2.23 0 4.117 1.543 4.117 3.428z" fill="#00dd3b" fill-rule="evenodd"/></svg>